<svg width="179" height="36" viewBox="0 0 179 36" fill="none" xmlns="http://www.w3.org/2000/svg">
<path fill-rule="evenodd" clip-rule="evenodd" d="M90.7492 31.6644C93.8421 34.4059 98.3762 35.7766 104.351 35.7766C110.326 35.7766 114.843 34.4059 117.901 31.6644C120.994 28.9229 122.54 24.4592 122.54 18.2732C122.54 12.0873 120.994 7.62353 117.901 4.88203C114.843 2.14053 110.326 0.769775 104.351 0.769775C98.3762 0.769775 93.8421 2.14053 90.7492 4.88203C87.6913 7.62353 86.1624 12.0873 86.1624 18.2732C86.1624 24.4592 87.6913 28.9229 90.7492 31.6644ZM108.305 23.4926C107.532 24.4767 106.214 24.9688 104.351 24.9688C102.488 24.9688 101.153 24.4767 100.344 23.4926C99.5712 22.4733 99.1846 20.7335 99.1846 18.2732C99.1846 15.8129 99.5712 14.0907 100.344 13.1065C101.153 12.0873 102.488 11.5776 104.351 11.5776C106.214 11.5776 107.532 12.0873 108.305 13.1065C109.114 14.0907 109.518 15.8129 109.518 18.2732C109.518 20.7335 109.114 22.4733 108.305 23.4926ZM73.2853 1.29699H54.2002V11.2808H66.9587V11.2613H70.2802C71.2643 11.2613 71.9848 11.4898 72.4417 11.9467C72.9338 12.3684 73.1798 13.0538 73.1798 14.0028C73.1798 15.7602 72.143 16.6389 70.0693 16.6389H66.9587V16.6237H54.2002V35.2494H66.9587V26.6032H67.4859C67.8726 26.6032 68.1713 26.691 68.3822 26.8668C68.5931 27.0074 68.7864 27.2885 68.9621 27.7103L72.2836 35.2494H85.5693L81.5625 26.0232C81.2813 25.3203 80.8068 24.7403 80.139 24.2834C81.9315 23.0884 83.3726 21.6298 84.4622 19.9076C85.5869 18.1502 86.1492 16.1819 86.1492 14.0028C86.1492 10.2069 85.0421 7.14904 82.8278 4.82931C80.6487 2.47443 77.4678 1.29699 73.2853 1.29699ZM135.077 35.7766C132.652 35.7766 130.332 35.5658 128.118 35.144C125.904 34.7222 124.059 34.1423 122.582 33.4042V23.8617C124.27 24.67 126.132 25.3379 128.171 25.8651C130.245 26.3923 132.09 26.6559 133.707 26.6559C134.761 26.6559 135.587 26.5329 136.185 26.2868C136.782 26.0057 137.081 25.619 137.081 25.127C137.081 24.7052 136.835 24.3713 136.343 24.1253C135.851 23.8441 134.937 23.475 133.601 23.0181C132.055 22.4909 131.176 22.1922 130.965 22.1219C128.716 21.2783 126.976 20.3996 125.746 19.4858C124.516 18.572 123.619 17.4824 123.057 16.2171C122.53 14.9518 122.266 13.335 122.266 11.3667C122.266 7.78169 123.496 5.12806 125.957 3.40584C128.452 1.64846 132.195 0.769775 137.186 0.769775C138.838 0.769775 140.754 0.945513 142.933 1.29699C145.112 1.61331 146.922 1.98236 148.363 2.40413V11.9994C145.024 10.6286 142.019 9.94326 139.348 9.94326C136.641 9.94326 135.288 10.3826 135.288 11.2613C135.288 11.6128 135.534 11.9115 136.026 12.1576C136.518 12.3684 137.503 12.6848 138.979 13.1065L140.35 13.4756C143.056 14.2137 145.112 15.1275 146.518 16.2171C147.959 17.2715 148.925 18.5017 149.418 19.9076C149.945 21.2783 150.208 23.0005 150.208 25.0742C150.208 28.3781 148.908 30.9966 146.307 32.9297C143.741 34.8277 139.998 35.7766 135.077 35.7766ZM156.293 35.144C158.507 35.5658 160.827 35.7766 163.252 35.7766C168.173 35.7766 171.916 34.8277 174.482 32.9297C177.083 30.9966 178.383 28.3781 178.383 25.0742C178.383 23.0005 178.12 21.2783 177.592 19.9076C177.1 18.5017 176.134 17.2715 174.693 16.2171C173.287 15.1275 171.231 14.2137 168.524 13.4756L167.154 13.1065C165.677 12.6848 164.693 12.3684 164.201 12.1576C163.709 11.9115 163.463 11.6128 163.463 11.2613C163.463 10.3826 164.816 9.94326 167.523 9.94326C170.194 9.94326 173.199 10.6286 176.538 11.9994V2.40413C175.097 1.98236 173.287 1.61331 171.108 1.29699C168.929 0.945513 167.013 0.769775 165.361 0.769775C160.37 0.769775 156.627 1.64846 154.132 3.40584C151.671 5.12806 150.441 7.78169 150.441 11.3667C150.441 13.335 150.705 14.9518 151.232 16.2171C151.794 17.4824 152.691 18.572 153.921 19.4858C155.151 20.3996 156.891 21.2783 159.14 22.1219C159.351 22.1922 160.23 22.4909 161.776 23.0181C163.112 23.475 164.026 23.8441 164.518 24.1253C165.01 24.3713 165.256 24.7052 165.256 25.127C165.256 25.619 164.957 26.0057 164.359 26.2868C163.762 26.5329 162.936 26.6559 161.882 26.6559C160.265 26.6559 158.42 26.3923 156.346 25.8651C154.307 25.3379 152.444 24.67 150.757 23.8617V33.4042C152.234 34.1423 154.079 34.7222 156.293 35.144Z" fill="#14385F"/>
<path fill-rule="evenodd" clip-rule="evenodd" d="M13.63 0.769775H48.049V35.1888H13.63V0.769775ZM26.5355 13.952C26.5355 15.7149 25.1064 17.1441 23.3435 17.1441C21.5806 17.1441 20.1515 15.7149 20.1515 13.952C20.1515 12.1891 21.5806 10.76 23.3435 10.76C25.1064 10.76 26.5355 12.1891 26.5355 13.952Z" fill="#F58634"/>
<circle cx="3.84778" cy="13.9518" r="3.26075" fill="#F58634"/>
</svg>
