<svg width="179" height="36" viewBox="0 0 179 36" fill="none" xmlns="http://www.w3.org/2000/svg">
<path fill-rule="evenodd" clip-rule="evenodd" d="M90.7492 31.3408C93.8421 34.0823 98.3762 35.453 104.351 35.453C110.326 35.453 114.843 34.0823 117.901 31.3408C120.994 28.5993 122.54 24.1356 122.54 17.9496C122.54 11.7636 120.994 7.29992 117.901 4.55842C114.843 1.81692 110.326 0.446167 104.351 0.446167C98.3762 0.446167 93.8421 1.81692 90.7492 4.55842C87.6913 7.29992 86.1624 11.7636 86.1624 17.9496C86.1624 24.1356 87.6913 28.5993 90.7492 31.3408ZM108.305 23.169C107.532 24.1531 106.214 24.6452 104.351 24.6452C102.488 24.6452 101.153 24.1531 100.344 23.169C99.5712 22.1497 99.1846 20.4099 99.1846 17.9496C99.1846 15.4893 99.5712 13.7671 100.344 12.7829C101.153 11.7636 102.488 11.254 104.351 11.254C106.214 11.254 107.532 11.7636 108.305 12.7829C109.114 13.7671 109.518 15.4893 109.518 17.9496C109.518 20.4099 109.114 22.1497 108.305 23.169ZM73.2853 0.973378H54.2002V10.9572H66.9587V10.9377H70.2802C71.2643 10.9377 71.9848 11.1661 72.4417 11.6231C72.9338 12.0448 73.1798 12.7302 73.1798 13.6792C73.1798 15.4366 72.143 16.3152 70.0693 16.3152H66.9587V16.3H54.2002V34.9258H66.9587V26.2796H67.4859C67.8726 26.2796 68.1713 26.3674 68.3822 26.5432C68.5931 26.6837 68.7864 26.9649 68.9621 27.3867L72.2836 34.9258H85.5693L81.5625 25.6996C81.2813 24.9967 80.8068 24.4167 80.139 23.9598C81.9315 22.7648 83.3726 21.3062 84.4622 19.584C85.5869 17.8266 86.1492 15.8583 86.1492 13.6792C86.1492 9.88326 85.0421 6.82543 82.8278 4.5057C80.6487 2.15082 77.4678 0.973378 73.2853 0.973378ZM135.077 35.453C132.652 35.453 130.332 35.2422 128.118 34.8204C125.904 34.3986 124.059 33.8187 122.582 33.0806V23.538C124.27 24.3464 126.132 25.0142 128.171 25.5415C130.245 26.0687 132.09 26.3323 133.707 26.3323C134.761 26.3323 135.587 26.2093 136.185 25.9632C136.782 25.682 137.081 25.2954 137.081 24.8034C137.081 24.3816 136.835 24.0477 136.343 23.8017C135.851 23.5205 134.937 23.1514 133.601 22.6945C132.055 22.1673 131.176 21.8685 130.965 21.7983C128.716 20.9547 126.976 20.076 125.746 19.1622C124.516 18.2484 123.619 17.1588 123.057 15.8935C122.53 14.6282 122.266 13.0114 122.266 11.0431C122.266 7.45809 123.496 4.80445 125.957 3.08223C128.452 1.32485 132.195 0.446167 137.186 0.446167C138.838 0.446167 140.754 0.621904 142.933 0.973378C145.112 1.28971 146.922 1.65875 148.363 2.08052V11.6758C145.024 10.305 142.019 9.61965 139.348 9.61965C136.641 9.61965 135.288 10.059 135.288 10.9377C135.288 11.2892 135.534 11.5879 136.026 11.8339C136.518 12.0448 137.503 12.3612 138.979 12.7829L140.35 13.152C143.056 13.8901 145.112 14.8039 146.518 15.8935C147.959 16.9479 148.925 18.1781 149.418 19.584C149.945 20.9547 150.208 22.6769 150.208 24.7506C150.208 28.0545 148.908 30.673 146.307 32.6061C143.741 34.5041 139.998 35.453 135.077 35.453ZM156.293 34.8204C158.507 35.2422 160.827 35.453 163.252 35.453C168.173 35.453 171.916 34.5041 174.482 32.6061C177.083 30.673 178.383 28.0545 178.383 24.7506C178.383 22.6769 178.12 20.9547 177.592 19.584C177.1 18.1781 176.134 16.9479 174.693 15.8935C173.287 14.8039 171.231 13.8901 168.524 13.152L167.154 12.7829C165.677 12.3612 164.693 12.0448 164.201 11.8339C163.709 11.5879 163.463 11.2892 163.463 10.9377C163.463 10.059 164.816 9.61965 167.523 9.61965C170.194 9.61965 173.199 10.305 176.538 11.6758V2.08052C175.097 1.65875 173.287 1.28971 171.108 0.973378C168.929 0.621904 167.013 0.446167 165.361 0.446167C160.37 0.446167 156.627 1.32485 154.132 3.08223C151.671 4.80445 150.441 7.45809 150.441 11.0431C150.441 13.0114 150.705 14.6282 151.232 15.8935C151.794 17.1588 152.691 18.2484 153.921 19.1622C155.151 20.076 156.891 20.9547 159.14 21.7983C159.351 21.8685 160.23 22.1673 161.776 22.6945C163.112 23.1514 164.026 23.5205 164.518 23.8017C165.01 24.0477 165.256 24.3816 165.256 24.8034C165.256 25.2954 164.957 25.682 164.359 25.9632C163.762 26.2093 162.936 26.3323 161.882 26.3323C160.265 26.3323 158.42 26.0687 156.346 25.5415C154.307 25.0142 152.444 24.3464 150.757 23.538V33.0806C152.234 33.8187 154.079 34.3986 156.293 34.8204Z" fill="#F2F2F2"/>
<path fill-rule="evenodd" clip-rule="evenodd" d="M48.049 0.446167H13.63V34.8652H48.049V0.446167ZM22.2465 16.8204C24.0094 16.8204 25.4385 15.3913 25.4385 13.6284C25.4385 11.8655 24.0094 10.4364 22.2465 10.4364C20.4836 10.4364 19.0544 11.8655 19.0544 13.6284C19.0544 15.3913 20.4836 16.8204 22.2465 16.8204Z" fill="#F58634"/>
<circle cx="3.19202" cy="13.6284" r="3.19202" fill="#F58634"/>
</svg>
